<svg width="40" height="40" viewBox="0 0 40 40" fill="none" xmlns="http://www.w3.org/2000/svg">
<path fill-rule="evenodd" clip-rule="evenodd" d="M30.0998 10.305C28.5699 8.71129 26.0378 8.65953 24.4441 10.1894L18.6728 15.7295L15.9028 12.8438L21.674 7.30375C24.8614 4.24405 29.9257 4.34756 32.9854 7.53494C36.0451 10.7223 35.9416 15.7866 32.7542 18.8463L26.9829 24.3864L24.2129 21.5007L29.9842 15.9607C31.5778 14.4308 31.6296 11.8987 30.0998 10.305Z" fill="#1F1148"/>
<path fill-rule="evenodd" clip-rule="evenodd" d="M9.90025 29.695C11.4301 31.2887 13.9622 31.3405 15.5559 29.8106L21.3272 24.2705L24.0972 27.1562L18.326 32.6963C15.1386 35.756 10.0743 35.6524 7.01461 32.4651C3.95491 29.2777 4.05842 24.2134 7.24581 21.1537L13.0171 15.6136L15.7871 18.4993L10.0158 24.0393C8.42215 25.5692 8.3704 28.1013 9.90025 29.695Z" fill="#1F1148"/>
<path fill-rule="evenodd" clip-rule="evenodd" d="M14.2869 22.7126L22.9438 14.4025L25.7139 17.2881L17.057 25.5982L14.2869 22.7126Z" fill="#1F1148"/>
</svg>
