<svg width="24" height="24" viewBox="0 0 24 24" fill="none" xmlns="http://www.w3.org/2000/svg">
<rect width="24" height="24" rx="2.14774" fill="#4A5797"/>
<path fill-rule="evenodd" clip-rule="evenodd" d="M8.85945 4H14.6908C17.3742 4 19.5502 6.17606 19.5502 8.85945V14.6908C19.5502 17.3742 17.3742 19.5502 14.6908 19.5502H8.85945C6.17606 19.5502 4 17.3742 4 14.6908V8.85945C4 6.17606 6.17606 4 8.85945 4ZM14.6908 18.0925C16.5665 18.0925 18.0924 16.5666 18.0924 14.6909V8.85951C18.0924 6.98376 16.5665 5.4579 14.6908 5.4579H8.85945C6.9837 5.4579 5.45783 6.98376 5.45783 8.85951V14.6909C5.45783 16.5666 6.9837 18.0925 8.85945 18.0925H14.6908Z" fill="white"/>
<path fill-rule="evenodd" clip-rule="evenodd" d="M7.88753 11.7752C7.88753 9.62825 9.62818 7.88759 11.7751 7.88759C13.922 7.88759 15.6626 9.62825 15.6626 11.7752C15.6626 13.9221 13.922 15.6627 11.7751 15.6627C9.62818 15.6627 7.88753 13.9221 7.88753 11.7752ZM9.34536 11.7752C9.34536 13.1145 10.4358 14.2049 11.7751 14.2049C13.1143 14.2049 14.2048 13.1145 14.2048 11.7752C14.2048 10.435 13.1143 9.34549 11.7751 9.34549C10.4358 9.34549 9.34536 10.435 9.34536 11.7752Z" fill="white"/>
<path d="M16.4722 7.59606C16.4722 7.88215 16.2403 8.11407 15.9542 8.11407C15.6681 8.11407 15.4362 7.88215 15.4362 7.59606C15.4362 7.30996 15.6681 7.07804 15.9542 7.07804C16.2403 7.07804 16.4722 7.30996 16.4722 7.59606Z" fill="white"/>
</svg>
