<svg width="24" height="24" viewBox="0 0 24 24" fill="none" xmlns="http://www.w3.org/2000/svg">
<rect width="24" height="24" rx="2.14774" fill="#4A5797"/>
<path d="M18.7574 4H5.17683C4.52628 4 4.00024 4.51359 4.00024 5.14857V18.7852C4.00024 19.4202 4.52628 19.9369 5.17683 19.9369H18.7574C19.4079 19.9369 19.9371 19.4202 19.9371 18.7883V5.14857C19.9371 4.51359 19.4079 4 18.7574 4ZM8.72839 17.5806H6.36276V9.97321H8.72839V17.5806ZM7.54557 8.93669C6.78608 8.93669 6.17289 8.32349 6.17289 7.56712C6.17289 6.81074 6.78608 6.19754 7.54557 6.19754C8.30195 6.19754 8.91515 6.81074 8.91515 7.56712C8.91515 8.32038 8.30195 8.93669 7.54557 8.93669ZM17.5808 17.5806H15.2183V13.8827C15.2183 13.0018 15.2027 11.8657 13.9888 11.8657C12.7593 11.8657 12.5725 12.8275 12.5725 13.8205V17.5806H10.2131V9.97321H12.4791V11.0128H12.5103C12.8247 10.4152 13.5966 9.78334 14.7452 9.78334C17.1388 9.78334 17.5808 11.3583 17.5808 13.4065V17.5806Z" fill="white"/>
</svg>
