<svg width="148" height="44" viewBox="0 0 148 44" fill="none" xmlns="http://www.w3.org/2000/svg">
<path d="M14.3999 9H9V34.1994H14.3999M24.5996 9H29.9995V34.1994H24.5996" stroke="#96CAB0" stroke-width="2.9056"/>
<path d="M51.0412 13.1352C51.3378 13.6789 51.6755 14.3544 52.0545 15.1618C52.4499 15.9526 52.8536 16.8176 53.2655 17.7568C53.6938 18.6794 54.114 19.6268 54.5259 20.5989C54.9378 21.571 55.325 22.4854 55.6874 23.3421C56.0499 22.4854 56.4371 21.571 56.849 20.5989C57.2609 19.6268 57.6728 18.6794 58.0847 17.7568C58.5131 16.8176 58.9168 15.9526 59.2957 15.1618C59.6911 14.3544 60.0371 13.6789 60.3337 13.1352H63.8431C64.0079 14.2721 64.1562 15.549 64.288 16.9659C64.4362 18.3664 64.5598 19.8327 64.6587 21.365C64.774 22.8808 64.8729 24.4049 64.9552 25.9371C65.0541 27.4694 65.1365 28.9111 65.2024 30.2621H61.4458C61.3964 28.598 61.3305 26.7856 61.2481 24.825C61.1657 22.8643 61.0422 20.8872 60.8774 18.8936C60.5808 19.5856 60.2513 20.3517 59.8889 21.192C59.5264 22.0323 59.1639 22.8726 58.8014 23.7129C58.4554 24.5531 58.1177 25.3605 57.7881 26.1348C57.4586 26.8927 57.1785 27.5435 56.9479 28.0873H54.254C54.0234 27.5435 53.7433 26.8927 53.4137 26.1348C53.0842 25.3605 52.7382 24.5531 52.3758 23.7129C52.0298 22.8726 51.6755 22.0323 51.313 21.192C50.9506 20.3517 50.6211 19.5856 50.3245 18.8936C50.1597 20.8872 50.0362 22.8643 49.9538 24.825C49.8714 26.7856 49.8055 28.598 49.7561 30.2621H45.9995C46.0654 28.9111 46.1396 27.4694 46.2219 25.9371C46.3208 24.4049 46.4197 22.8808 46.5185 21.365C46.6338 19.8327 46.7574 18.3664 46.8892 16.9659C47.0375 15.549 47.194 14.2721 47.3588 13.1352H51.0412Z" fill="#96CAB0"/>
<path d="M80.1411 30.2621C79.9599 29.669 79.7539 29.0593 79.5233 28.4333C79.3091 27.8072 79.0949 27.1811 78.8807 26.555H72.2079C71.9937 27.1811 71.7713 27.8072 71.5406 28.4333C71.3264 29.0593 71.1287 29.669 70.9475 30.2621H66.9438C67.5863 28.4168 68.196 26.7115 68.7726 25.1463C69.3493 23.5811 69.9095 22.1064 70.4532 20.7225C71.0134 19.3385 71.5571 18.0286 72.0843 16.7929C72.628 15.5407 73.1882 14.3215 73.7649 13.1352H77.4473C78.0075 14.3215 78.5594 15.5407 79.1031 16.7929C79.6468 18.0286 80.1905 19.3385 80.7343 20.7225C81.2944 22.1064 81.8629 23.5811 82.4395 25.1463C83.0162 26.7115 83.6258 28.4168 84.2684 30.2621H80.1411ZM75.5196 17.0153C75.4372 17.2625 75.3136 17.6002 75.1489 18.0286C74.9841 18.457 74.7946 18.9513 74.5804 19.5115C74.3662 20.0716 74.1273 20.6895 73.8637 21.365C73.6166 22.0405 73.3612 22.749 73.0976 23.4904H77.9663C77.7027 22.749 77.4473 22.0405 77.2001 21.365C76.953 20.6895 76.7141 20.0716 76.4834 19.5115C76.2692 18.9513 76.0798 18.457 75.915 18.0286C75.7502 17.6002 75.6184 17.2625 75.5196 17.0153Z" fill="#96CAB0"/>
<path d="M97.161 13.1352V16.4222H91.9958V30.2621H88.1404V16.4222H82.9751V13.1352H97.161Z" fill="#96CAB0"/>
<path d="M104.656 12.9375C107.226 12.9375 109.195 13.3988 110.562 14.3215C111.93 15.2277 112.614 16.6446 112.614 18.5723C112.614 19.7751 112.334 20.7554 111.773 21.5133C111.23 22.2547 110.439 22.8396 109.401 23.268C109.747 23.6964 110.109 24.1907 110.488 24.7509C110.867 25.2946 111.238 25.8712 111.6 26.4808C111.979 27.074 112.342 27.7001 112.688 28.3591C113.034 29.0017 113.355 29.636 113.652 30.2621H109.327C109.014 29.7019 108.692 29.1335 108.363 28.5568C108.05 27.9802 107.72 27.42 107.374 26.8763C107.045 26.3326 106.715 25.8218 106.386 25.344C106.056 24.8497 105.727 24.4049 105.397 24.0094H103.494V30.2621H99.6388V13.3824C100.479 13.2176 101.344 13.1023 102.234 13.0364C103.14 12.9705 103.947 12.9375 104.656 12.9375ZM104.878 16.2245C104.598 16.2245 104.343 16.2327 104.112 16.2492C103.898 16.2657 103.692 16.2821 103.494 16.2986V20.9449H104.582C106.032 20.9449 107.07 20.7636 107.696 20.4012C108.322 20.0387 108.635 19.4208 108.635 18.5476C108.635 17.7073 108.313 17.1142 107.671 16.7682C107.045 16.4057 106.114 16.2245 104.878 16.2245Z" fill="#96CAB0"/>
<path d="M116.123 13.1352H119.978V30.2621H116.123V13.1352Z" fill="#96CAB0"/>
<path d="M133.779 30.2621C133.301 29.3065 132.774 28.3426 132.197 27.3706C131.637 26.382 130.986 25.3769 130.245 24.3554C130.014 24.652 129.718 25.0639 129.355 25.5911C129.009 26.1184 128.655 26.6786 128.292 27.2717C127.946 27.8648 127.617 28.4333 127.304 28.977C126.991 29.5207 126.76 29.9491 126.612 30.2621H122.213C122.938 28.9275 123.778 27.5271 124.733 26.0607C125.706 24.5943 126.785 23.0373 127.971 21.3897L122.46 13.1352H127.131L130.467 18.4735L133.729 13.1352H138.129L132.691 21.4392C134.075 23.2351 135.237 24.8991 136.176 26.4314C137.115 27.9472 137.857 29.2241 138.4 30.2621H133.779Z" fill="#96CAB0"/>
</svg>
